<?xml version="1.0" encoding="UTF-8"?>
<!DOCTYPE svg PUBLIC "-//W3C//DTD SVG 1.1//EN" "http://www.w3.org/Graphics/SVG/1.1/DTD/svg11.dtd">
<!-- Creator: CorelDRAW X6 -->
<svg xmlns="http://www.w3.org/2000/svg" xml:space="preserve" width="69.2232mm" height="48.4311mm" version="1.1" style="shape-rendering:geometricPrecision; text-rendering:geometricPrecision; image-rendering:optimizeQuality; fill-rule:evenodd; clip-rule:evenodd"
viewBox="0 0 5991 4192"
 xmlns:xlink="http://www.w3.org/1999/xlink">
 <defs>
  <style type="text/css">
   <![CDATA[
    .fil0 {fill:#0064A6;fill-rule:nonzero}
   ]]>
  </style>
 </defs>
 <g id="Camada_x0020_1">
  <metadata id="CorelCorpID_0Corel-Layer"/>
  <g id="_180116344">
   <polygon class="fil0" points="461,466 461,2795 922,2795 922,932 1383,932 1383,2795 1844,2795 1844,932 2304,932 2304,3261 0,3261 0,0 5991,0 5991,466 "/>
   <path class="fil0" d="M4148 2329l0 -1397 -1383 0 0 2329 1383 0 0 -466 -922 0 0 -466 922 0zm-461 -466l-461 0 0 -466 461 0 0 466z"/>
   <path class="fil0" d="M5991 932l-1382 0 0 2329 922 0 0 466 -5531 0 0 465 5991 0 0 -3260zm-461 1863l-461 0 0 -1398 461 0 0 1398z"/>
  </g>
 </g>
</svg>
